<svg width="20" height="20" viewBox="0 0 10 10" fill="none" xmlns="http://www.w3.org/2000/svg">
<path d="M1.46492 8.53492C0.987367 8.07368 0.606456 7.52196 0.344411 6.91194C0.0823656 6.30192 -0.0555656 5.64582 -0.0613347 4.98192C-0.0671037 4.31803 0.0594048 3.65963 0.310809 3.04515C0.562214 2.43067 0.933479 1.87241 1.40294 1.40294C1.87241 0.933479 2.43067 0.562214 3.04515 0.310809C3.65963 0.0594048 4.31803 -0.0671037 4.98192 -0.0613347C5.64582 -0.0555656 6.30192 0.0823656 6.91194 0.344411C7.52196 0.606456 8.07368 0.987367 8.53492 1.46492C9.44571 2.40793 9.94968 3.67094 9.93829 4.98192C9.9269 6.29291 9.40105 7.54697 8.47401 8.47401C7.54697 9.40105 6.29291 9.9269 4.98192 9.93829C3.67094 9.94968 2.40793 9.44571 1.46492 8.53492ZM2.16992 7.82992C2.92048 8.58048 3.93846 9.00214 4.99992 9.00214C6.06137 9.00214 7.07935 8.58048 7.82992 7.82992C8.58048 7.07935 9.00214 6.06137 9.00214 4.99992C9.00214 3.93846 8.58048 2.92048 7.82992 2.16992C7.07935 1.41935 6.06137 0.997693 4.99992 0.997693C3.93846 0.997693 2.92048 1.41935 2.16992 2.16992C1.41935 2.92048 0.997693 3.93846 0.997693 4.99992C0.997693 6.06137 1.41935 7.07935 2.16992 7.82992ZM7.11992 3.58492L5.70492 4.99992L7.11992 6.41492L6.41492 7.11992L4.99992 5.70492L3.58492 7.11992L2.87992 6.41492L4.29492 4.99992L2.87992 3.58492L3.58492 2.87992L4.99992 4.29492L6.41492 2.87992L7.11992 3.58492Z" fill="#F8F8F8"/>
</svg>
