<svg width="20" height="20" viewBox="0 0 10 10" fill="none" xmlns="http://www.w3.org/2000/svg">
<path d="M4.5 5.5C4.5 5.36739 4.55268 5.24021 4.64645 5.14645C4.74021 5.05268 4.86739 5 5 5C5.13261 5 5.25979 5.05268 5.35355 5.14645C5.44732 5.24021 5.5 5.36739 5.5 5.5V7C5.5 7.13261 5.44732 7.25979 5.35355 7.35355C5.25979 7.44732 5.13261 7.5 5 7.5C4.86739 7.5 4.74021 7.44732 4.64645 7.35355C4.55268 7.25979 4.5 7.13261 4.5 7V5.5ZM5 2.75C4.80109 2.75 4.61032 2.82902 4.46967 2.96967C4.32902 3.11032 4.25 3.30109 4.25 3.5C4.25 3.69891 4.32902 3.88968 4.46967 4.03033C4.61032 4.17098 4.80109 4.25 5 4.25C5.19891 4.25 5.38968 4.17098 5.53033 4.03033C5.67098 3.88968 5.75 3.69891 5.75 3.5C5.75 3.30109 5.67098 3.11032 5.53033 2.96967C5.38968 2.82902 5.19891 2.75 5 2.75ZM0 5C0 3.67392 0.526784 2.40215 1.46447 1.46447C2.40215 0.526784 3.67392 0 5 0C6.32608 0 7.59785 0.526784 8.53553 1.46447C9.47322 2.40215 10 3.67392 10 5C10 6.32608 9.47322 7.59785 8.53553 8.53553C7.59785 9.47322 6.32608 10 5 10C3.67392 10 2.40215 9.47322 1.46447 8.53553C0.526784 7.59785 0 6.32608 0 5ZM5 1C3.93913 1 2.92172 1.42143 2.17157 2.17157C1.42143 2.92172 1 3.93913 1 5C1 6.06087 1.42143 7.07828 2.17157 7.82843C2.92172 8.57857 3.93913 9 5 9C6.06087 9 7.07828 8.57857 7.82843 7.82843C8.57857 7.07828 9 6.06087 9 5C9 3.93913 8.57857 2.92172 7.82843 2.17157C7.07828 1.42143 6.06087 1 5 1Z" fill="#F8F8F8"/>
</svg>
